<?xml version="1.0" encoding="utf-8"?>
<!-- Generator: Adobe Illustrator 23.1.0, SVG Export Plug-In . SVG Version: 6.00 Build 0)  -->
<svg version="1.1" id="Capa_1" xmlns="http://www.w3.org/2000/svg" xmlns:xlink="http://www.w3.org/1999/xlink" x="0px" y="0px"
	 viewBox="0 0 455.7 455.7" style="enable-background:new 0 0 455.7 455.7;" xml:space="preserve">
<style type="text/css">
	.st0{fill:#FFFFFF;}
</style>
<g>
	<path class="st0" d="M379.9,118.4l-52,248.8c-2.4,11.7-16.1,16.9-25.7,9.9l-78.6-57.7l-40,40.9c-7,7.2-19.2,4.3-22.2-5.3
		l-28.9-91.7L55,240.4c-10.2-3-10.8-17.2-0.9-21l304.8-118.8C370.4,96.1,382.4,106.2,379.9,118.4z M316.2,149.9L149.1,253.6
		c-2.9,1.8-4.3,5.4-3.3,8.7l22.4,72.3c0.5,1.5,2.7,1.3,2.9-0.3l5.4-48.4c0.2-1.9,1.1-3.6,2.5-4.8l141.6-125.2
		C324,152.8,320.1,147.5,316.2,149.9z"/>
</g>
</svg>
